<?xml version="1.0" encoding="utf-8"?>
<!-- Generator: Adobe Illustrator 16.0.0, SVG Export Plug-In . SVG Version: 6.00 Build 0)  -->
<!DOCTYPE svg PUBLIC "-//W3C//DTD SVG 1.1//EN" "http://www.w3.org/Graphics/SVG/1.1/DTD/svg11.dtd">
<svg version="1.1" id="Layer_1" xmlns="http://www.w3.org/2000/svg" xmlns:xlink="http://www.w3.org/1999/xlink" x="0px" y="0px"
	 width="250px" height="100px" viewBox="0 0 250 100" enable-background="new 0 0 250 100" xml:space="preserve">
<g>
	<path fill="#231F20" d="M13.557,29.675c-0.979,2.721-1.633,4.516-1.633,10.123v7.999L22.427,35.01
		c2.612-3.103,2.83-4.028,3.156-5.334h10.34c-2.667,1.959-5.877,4.79-9.632,9.36l-7.347,8.761l13.875,17.468
		c1.527,1.907,1.853,2.396,4.626,5.172l-9.957,0.055c-0.544-1.96-1.145-3.973-4.408-7.946l-11.157-14.04v11.753
		c0,4.572,0.925,8.49,1.416,10.232H4.145c1.141-3.484,1.63-7.077,1.63-10.72V38.491c0-2.72-0.544-6.095-1.415-8.709L13.557,29.675z"
		/>
	<path fill="#231F20" d="M75.483,59.334c2.938,6.367,4.843,8.979,6.368,11.048l-9.687,0.109c0-1.797-0.218-3.866-1.687-7.186
		l-2.396-5.496H53.771l-2.069,4.407c-0.706,1.524-2.284,5.06-2.066,8.273h-9.959c1.36-1.578,2.559-3.05,5.931-9.742l15.728-31.237
		h0.327L75.483,59.334z M56.058,53.022h9.903l-4.734-10.94L56.058,53.022z"/>
	<path fill="#231F20" d="M88.162,38.218c0-4.789-0.653-7.02-1.089-8.434l7.946-0.109c10.499-0.164,15.446,6.15,15.446,11.646
		c0,6.639-5.874,9.905-7.721,10.884c3.644,6.421,8.646,12.462,13.49,18.286h-5.606c-5.489-4.736-7.99-7.674-16.424-18.883v10.065
		c0,3.157,0.053,4.463,1.142,8.817h-8.272c0.871-4.027,1.089-7.022,1.089-10.559L88.162,38.218L88.162,38.218z M94.204,51.007
		c3.864-1.088,10.064-2.83,10.064-9.088c0-3.048-1.901-7.945-10.064-8.761V51.007z"/>
	<path fill="#231F20" d="M130.436,29.675c-0.762,2.394-1.521,4.625-1.521,10.775v18.773c0,4.627,0.326,6.969,1.521,11.267h-9.195
		c0.815-2.56,1.578-4.899,1.578-11.701V39.362c0-4.625-0.545-7.185-1.578-9.687H130.436z"/>
	<path fill="#231F20" d="M144.747,29.675c0.763,1.851,1.144,2.831,4.354,6.913l18.447,23.399V41.43
		c0-7.511-0.488-9.415-1.145-11.755h7.84c-0.547,2.177-1.036,4.354-1.036,8.708v21.931c0,6.313,0.763,8.489,1.36,10.178h-7.563
		c-0.708-2.178-2.066-4.081-3.482-5.879l-17.359-22.204v16.11c0,3.592,0.379,8.653,1.629,11.973h-8.65
		c1.308-4.247,1.361-10.014,1.361-10.775V35.171c-1.961-2.504-3.047-3.537-5.498-5.496H144.747z"/>
	<path fill="#231F20" d="M213.044,59.334c2.938,6.367,4.843,8.979,6.366,11.048l-9.688,0.109c0-1.797-0.221-3.866-1.687-7.186
		l-2.396-5.496H191.33l-2.068,4.407c-0.709,1.524-2.285,5.06-2.07,8.273h-9.955c1.359-1.578,2.556-3.05,5.93-9.742l15.729-31.239
		h0.326L213.044,59.334z M193.613,53.022h9.906l-4.735-10.94L193.613,53.022z"/>
	<path fill="#231F20" d="M245.855,29.73l-2.83,6.258c-4.463-1.795-5.932-2.177-10.666-2.177v26.937c0,3.265,0.271,6.584,1.145,9.743
		h-8.326c0.602-2.557,1.141-5.549,1.141-10.395V33.811c-2.721-0.053-5.112-0.053-13.004,2.777l2.177-6.858H245.855z"/>
</g>
</svg>
